<svg width="103" height="26" viewBox="0 0 103 26" fill="none" xmlns="http://www.w3.org/2000/svg">
<path fill-rule="evenodd" clip-rule="evenodd" d="M102.062 13.0891V21.6101C102.062 21.9832 101.761 22.2857 101.389 22.2857H98.8623C98.4911 22.2857 98.1902 21.9832 98.1902 21.6101V20.2698C96.6158 21.445 94.6728 22.1391 92.5705 22.1391C87.3181 22.1391 83.0603 17.8067 83.0603 12.4624C83.0603 7.11811 87.3181 2.78571 92.5705 2.78571C94.6728 2.78571 96.6158 3.47979 98.1902 4.65503V3.46133C98.1902 3.08819 98.4911 2.78571 98.8623 2.78571H101.389C101.761 2.78571 102.062 3.08819 102.062 3.46133V11.8423C102.074 12.0473 102.081 12.2541 102.081 12.4624C102.081 12.6709 102.074 12.8778 102.061 13.0829L102.062 13.0891ZM76.2398 21.4121C76.2398 21.6787 76.0249 21.8947 75.7597 21.8947H72.7813C72.5162 21.8947 72.3012 21.6787 72.3012 21.4121V3.6104C72.3012 3.34387 72.5162 3.12781 72.7813 3.12781H75.7597C76.0249 3.12781 76.2398 3.34387 76.2398 3.6104V4.61941C77.7033 3.54117 79.4804 2.87662 81.4055 2.79436C81.411 2.79413 81.4165 2.79401 81.4221 2.79401C81.6371 2.79401 81.8114 2.96926 81.8115 3.18544V6.4853C81.8115 6.65346 81.6806 6.79223 81.5136 6.80119C78.5749 6.95872 76.2398 9.43309 76.2398 12.4624V21.4121ZM48.7797 5.09129C48.7818 5.09309 48.7839 5.09493 48.7859 5.09679C48.9257 5.22392 48.9364 5.44087 48.8099 5.58135L46.7267 7.89536C46.5388 8.10405 46.2225 8.13142 46.0019 7.95808C45.9968 7.95409 45.9919 7.95023 45.9871 7.94648C45.0289 7.20432 43.8569 6.79322 42.6179 6.79322C39.5408 6.79322 37.0462 9.3314 37.0462 12.4624C37.0462 15.5934 39.5408 18.1316 42.6179 18.1316C43.7222 18.1316 44.7737 17.8056 45.6706 17.2061L45.6748 17.2032C45.8997 17.0523 46.2024 17.1015 46.3684 17.316L48.2249 19.7144C48.2281 19.7185 48.2313 19.7228 48.2344 19.7271C48.3767 19.9252 48.3323 20.2019 48.1352 20.345C46.5399 21.5029 44.6243 22.1391 42.6179 22.1391C37.3655 22.1391 33.1077 17.8067 33.1077 12.4624C33.1077 7.11811 37.3655 2.78571 42.6179 2.78571C44.9081 2.78571 47.0758 3.61508 48.7797 5.09129ZM59.9092 22.1391C54.6569 22.1391 50.399 17.8067 50.399 12.4624C50.399 7.11811 54.6569 2.78571 59.9092 2.78571C65.1616 2.78571 69.4195 7.11811 69.4195 12.4624C69.4195 17.8067 65.1616 22.1391 59.9092 22.1391ZM59.9091 18.1316C62.9863 18.1316 65.4808 15.5934 65.4808 12.4624C65.4808 9.3314 62.9863 6.79322 59.9091 6.79322C56.832 6.79322 54.3375 9.3314 54.3375 12.4624C54.3375 15.5934 56.832 18.1316 59.9091 18.1316ZM92.5705 18.1316C95.6477 18.1316 98.1422 15.5934 98.1422 12.4624C98.1422 9.3314 95.6477 6.79322 92.5705 6.79322C89.4934 6.79322 86.9989 9.3314 86.9989 12.4624C86.9989 15.5934 89.4934 18.1316 92.5705 18.1316Z" fill="#202020"/>
<path fill-rule="evenodd" clip-rule="evenodd" d="M12.1121 7.52065e-05C11.6149 0.00620747 11.015 0.0857389 10.7113 0.138637C8.89329 0.454879 7.13953 1.16601 5.61294 2.22187C3.28981 3.82851 1.50243 6.22793 0.627987 8.93235C-0.400776 12.1143 -0.154289 15.68 1.29174 18.6759C2.66548 21.5221 5.09433 23.8265 7.99269 25.0295C10.4306 26.0413 13.1592 26.2652 15.7133 25.6859C18.8225 24.9807 21.6068 23.0785 23.4261 20.4699C24.7892 18.5156 25.5965 16.1775 25.7492 13.7901C25.7612 13.5847 25.689 13.3832 25.5495 13.2332C25.4101 13.0833 25.2155 12.9979 25.0118 12.9974L24.8755 12.9971C23.9744 12.995 22.6049 12.9917 21.7777 12.9916C21.3921 12.9907 21.0706 13.2899 21.0399 13.6783C21.003 14.1224 20.9312 14.5626 20.8239 14.9946C20.3269 16.9963 19.0511 18.7906 17.3327 19.9189C15.5837 21.0671 13.403 21.4942 11.3577 21.1044C9.31604 20.7153 7.46855 19.5139 6.25772 17.8312C5.248 16.4281 4.69519 14.6946 4.69788 12.9633C4.70142 10.713 5.65323 8.50278 7.26494 6.9641C8.60695 5.68298 10.3741 4.88961 12.2206 4.73361C12.6038 4.70107 12.8986 4.37735 12.899 3.98868L12.8991 3.75764C12.8998 2.87543 12.9008 1.57533 12.9003 0.745971C12.9005 0.539236 12.8158 0.341573 12.6664 0.200245C12.517 0.0588243 12.3174 -0.00245652 12.1121 7.52065e-05ZM25.734 4.19422C25.734 1.89496 23.8866 0.0282086 21.6112 0.0282086C19.3358 0.0282086 17.4884 1.89496 17.4884 4.19422C17.4884 6.49357 19.3358 8.36032 21.6112 8.36032C23.8866 8.36032 25.734 6.49357 25.734 4.19422Z" fill="#FE3E6D"/>
</svg>
